<svg width="256" height="256" viewBox="0 0 256 256" fill="none" xmlns="http://www.w3.org/2000/svg">
<g clip-path="url(#clip0_81_29)">
<mask id="path-2-outside-1_81_29" maskUnits="userSpaceOnUse" x="19" y="32" width="219" height="195" fill="black">
<rect fill="white" x="19" y="32" width="219" height="195"/>
<path d="M128.617 217.812L40.9609 130.156C34.0078 123.125 29.3594 115 27.0156 105.781C24.6719 96.4844 24.6719 87.2266 27.0156 78.0078C29.3594 68.7891 34.0078 60.7812 40.9609 53.9844C48.0703 47.0313 56.1562 42.4219 65.2188 40.1562C74.3594 37.8125 83.4609 37.8125 92.5234 40.1562C101.664 42.4219 109.789 47.0313 116.898 53.9844L128.617 65.2344L140.102 53.9844C147.289 47.0313 155.414 42.4219 164.477 40.1562C173.617 37.8125 182.719 37.8125 191.781 40.1562C200.922 42.4219 209.008 47.0313 216.039 53.9844C222.992 60.7812 227.641 68.7891 229.984 78.0078C232.328 87.2266 232.328 96.4844 229.984 105.781C227.719 115 223.07 123.125 216.039 130.156L128.617 217.812Z"/>
</mask>
<path d="M128.617 217.812L40.9609 130.156C34.0078 123.125 29.3594 115 27.0156 105.781C24.6719 96.4844 24.6719 87.2266 27.0156 78.0078C29.3594 68.7891 34.0078 60.7812 40.9609 53.9844C48.0703 47.0313 56.1562 42.4219 65.2188 40.1562C74.3594 37.8125 83.4609 37.8125 92.5234 40.1562C101.664 42.4219 109.789 47.0313 116.898 53.9844L128.617 65.2344L140.102 53.9844C147.289 47.0313 155.414 42.4219 164.477 40.1562C173.617 37.8125 182.719 37.8125 191.781 40.1562C200.922 42.4219 209.008 47.0313 216.039 53.9844C222.992 60.7812 227.641 68.7891 229.984 78.0078C232.328 87.2266 232.328 96.4844 229.984 105.781C227.719 115 223.07 123.125 216.039 130.156L128.617 217.812Z" fill="url(#paint0_linear_81_29)"/>
<path d="M128.617 217.812L124.375 222.055L128.623 226.303L132.866 222.049L128.617 217.812ZM40.9609 130.156L36.6947 134.375L36.7064 134.387L36.7183 134.399L40.9609 130.156ZM27.0156 105.781L21.1976 107.248L21.2006 107.26L27.0156 105.781ZM27.0156 78.0078L21.2006 76.5294L27.0156 78.0078ZM40.9609 53.9844L45.1551 58.2749L45.1562 58.2739L40.9609 53.9844ZM65.2188 40.1562L66.674 45.9771L66.6915 45.9727L66.709 45.9682L65.2188 40.1562ZM92.5234 40.1562L91.0211 45.9651L91.0505 45.9727L91.0799 45.98L92.5234 40.1562ZM116.898 53.9844L112.703 58.2739L112.723 58.2934L112.743 58.3127L116.898 53.9844ZM128.617 65.2344L124.462 69.5627L128.659 73.5922L132.816 69.5205L128.617 65.2344ZM140.102 53.9844L135.93 49.672L135.916 49.6851L135.903 49.6982L140.102 53.9844ZM164.477 40.1562L165.932 45.9771L165.949 45.9727L165.967 45.9682L164.477 40.1562ZM191.781 40.1562L190.279 45.9651L190.308 45.9727L190.338 45.98L191.781 40.1562ZM216.039 53.9844L211.82 58.2507L211.833 58.2628L211.845 58.2749L216.039 53.9844ZM229.984 105.781L224.166 104.315L224.162 104.332L224.158 104.349L229.984 105.781ZM216.039 130.156L211.796 125.914L211.791 125.919L216.039 130.156ZM128.617 217.812L132.86 213.57L45.2036 125.914L40.9609 130.156L36.7183 134.399L124.375 222.055L128.617 217.812ZM40.9609 130.156L45.2272 125.937C38.994 119.634 34.9006 112.445 32.8306 104.303L27.0156 105.781L21.2006 107.26C23.8182 117.555 29.0217 126.616 36.6947 134.375L40.9609 130.156ZM27.0156 105.781L32.8336 104.315C30.7315 95.9763 30.7346 87.7307 32.8306 79.4862L27.0156 78.0078L21.2006 76.5294C18.6092 86.7224 18.6122 96.9924 21.1977 107.248L27.0156 105.781ZM27.0156 78.0078L32.8306 79.4862C34.8964 71.3607 38.9719 64.3192 45.1551 58.2749L40.9609 53.9844L36.7668 49.6938C29.0437 57.2433 23.8223 66.2174 21.2006 76.5294L27.0156 78.0078ZM40.9609 53.9844L45.1562 58.2739C51.5553 52.0154 58.7116 47.9677 66.674 45.9771L65.2188 40.1562L63.7635 34.3354C53.6009 36.8761 44.5854 42.0471 36.7657 49.6949L40.9609 53.9844ZM65.2188 40.1562L66.709 45.9682C74.8762 43.8741 82.9482 43.8773 91.0211 45.9651L92.5234 40.1562L94.0257 34.3474C83.9737 31.7477 73.8426 31.7509 63.7285 34.3443L65.2188 40.1562ZM92.5234 40.1562L91.0799 45.98C99.1242 47.9739 106.314 52.0247 112.703 58.2739L116.898 53.9844L121.094 49.6949C113.265 42.0378 104.204 36.8698 93.9669 34.3325L92.5234 40.1562ZM116.898 53.9844L112.743 58.3127L124.462 69.5627L128.617 65.2344L132.772 60.9061L121.054 49.6561L116.898 53.9844ZM128.617 65.2344L132.816 69.5205L144.3 58.2705L140.102 53.9844L135.903 49.6982L124.419 60.9482L128.617 65.2344ZM140.102 53.9844L144.273 58.2967C150.759 52.0228 157.964 47.9691 165.932 45.9771L164.477 40.1562L163.021 34.3354C152.864 36.8746 143.819 42.0397 135.93 49.672L140.102 53.9844ZM164.477 40.1562L165.967 45.9682C174.134 43.8741 182.206 43.8773 190.279 45.9651L191.781 40.1562L193.284 34.3474C183.232 31.7477 173.1 31.7509 162.986 34.3443L164.477 40.1562ZM191.781 40.1562L190.338 45.98C198.376 47.9725 205.517 52.0174 211.82 58.2507L216.039 53.9844L220.258 49.7181C212.499 42.0451 203.467 36.8712 193.225 34.3325L191.781 40.1562ZM216.039 53.9844L211.845 58.2749C218.028 64.3192 222.104 71.3607 224.169 79.4862L229.984 78.0078L235.799 76.5294C233.178 66.2174 227.956 57.2433 220.233 49.6938L216.039 53.9844ZM229.984 78.0078L224.169 79.4862C226.265 87.7307 226.268 95.9763 224.166 104.315L229.984 105.781L235.802 107.248C238.388 96.9924 238.391 86.7224 235.799 76.5294L229.984 78.0078ZM229.984 105.781L224.158 104.349C222.166 112.453 218.091 119.619 211.796 125.914L216.039 130.156L220.282 134.399C228.049 126.631 233.271 117.547 235.811 107.213L229.984 105.781ZM216.039 130.156L211.791 125.919L124.369 213.576L128.617 217.812L132.866 222.049L220.287 134.393L216.039 130.156Z" fill="white" mask="url(#path-2-outside-1_81_29)"/>
</g>
<defs>
<linearGradient id="paint0_linear_81_29" x1="35.0341" y1="28.2294" x2="202.894" y2="408.485" gradientUnits="userSpaceOnUse">
<stop stop-color="#FF6200"/>
<stop offset="0.5" stop-color="#002CCC"/>
<stop offset="1" stop-color="#993B00"/>
</linearGradient>
<clipPath id="clip0_81_29">
<rect width="256" height="256" rx="8" fill="white"/>
</clipPath>
</defs>
</svg>
